# xmcd CD database file
#
# Track frame offsets:
#	150
#	20259
#	35230
#	49398
#	67134
#	83004
#	97857
#	117114
#	132077
#	150246
#	168028
#	182936
#	196884
#
# Disc length: 2814 seconds
#
# Revision: 0
# Processed by: cddbd v1.5.2PL0 Copyright (c) Steve Scherf et al.
# Submitted via: ACXtractor (MTCDDB.DLL V2003.12.21)
#
DISCID=a10afc0d
DTITLE=Graham Rodger - Stronger for it All
DYEAR=2012
DGENRE=Country
TTITLE0=Stronger For It All
TTITLE1=Beersheba
TTITLE2=Man Shy
TTITLE3=Looking Back
TTITLE4=Tinsel Grown
TTITLE5=Whoever Get My Dog
TTITLE6=The Min Min Light
TTITLE7=The Old Coopers Note Book
TTITLE8=The Fence Off
TTITLE9=A Mug of Billie Tea
TTITLE10=Oldd Bag of Bones
TTITLE11=Darling Downs
TTITLE12=I Am
EXTD=ID3G:   2 YEAR: 2012
EXTT0=
EXTT1=
EXTT2=
EXTT3=
EXTT4=
EXTT5=
EXTT6=
EXTT7=
EXTT8=
EXTT9=
EXTT10=
EXTT11=
EXTT12=
PLAYORDER=
